<svg width="120" height="121" viewBox="0 0 120 121" fill="none" xmlns="http://www.w3.org/2000/svg">
<path d="M59.609 0.631081C59.8404 0.456306 60.1596 0.456306 60.391 0.631082L73.1974 10.3051C73.3319 10.4068 73.5008 10.452 73.6682 10.4313L89.5959 8.4565C89.8836 8.42082 90.1601 8.58045 90.2731 8.84749L96.5267 23.6287C96.5924 23.784 96.716 23.9076 96.8713 23.9733L111.653 30.2269C111.92 30.3399 112.079 30.6164 112.044 30.9041L110.069 46.8318C110.048 46.9992 110.093 47.1681 110.195 47.3026L119.869 60.109C120.044 60.3404 120.044 60.6596 119.869 60.891L110.195 73.6974C110.093 73.8319 110.048 74.0008 110.069 74.1682L112.044 90.0959C112.079 90.3836 111.92 90.6601 111.653 90.7731L96.8713 97.0267C96.716 97.0924 96.5924 97.216 96.5267 97.3713L90.2731 112.153C90.1601 112.42 89.8836 112.579 89.5959 112.544L73.6682 110.569C73.5008 110.548 73.3319 110.593 73.1974 110.695L60.391 120.369C60.1596 120.544 59.8404 120.544 59.609 120.369L46.8026 110.695C46.6681 110.593 46.4992 110.548 46.3318 110.569L30.4041 112.544C30.1164 112.579 29.8399 112.42 29.7269 112.153L23.4733 97.3713C23.4076 97.216 23.284 97.0924 23.1287 97.0267L8.34749 90.7731C8.08045 90.6601 7.92083 90.3836 7.9565 90.0959L9.93129 74.1682C9.95204 74.0008 9.90679 73.8319 9.80514 73.6974L0.131081 60.891C-0.043694 60.6596 -0.0436936 60.3404 0.131082 60.109L9.80514 47.3026C9.90679 47.1681 9.95204 46.9992 9.93129 46.8318L7.9565 30.9041C7.92082 30.6164 8.08045 30.3399 8.34749 30.2269L23.1287 23.9733C23.284 23.9076 23.4076 23.784 23.4733 23.6287L29.7269 8.84749C29.8399 8.58045 30.1164 8.42083 30.4041 8.4565L46.3318 10.4313C46.4992 10.452 46.6681 10.4068 46.8026 10.3051L59.609 0.631081Z" fill="url(#paint0_linear_686_532)"/>
<defs>
<linearGradient id="paint0_linear_686_532" x1="60" y1="0.5" x2="60" y2="120.5" gradientUnits="userSpaceOnUse">
<stop stop-color="#FFC340"/>
<stop offset="0.0666667" stop-color="#FFC33F"/>
<stop offset="0.133333" stop-color="#FFC23D"/>
<stop offset="0.2" stop-color="#FFC23B"/>
<stop offset="0.266667" stop-color="#FFC036"/>
<stop offset="0.333333" stop-color="#FFBF31"/>
<stop offset="0.4" stop-color="#FFBD2B"/>
<stop offset="0.466667" stop-color="#FFBA24"/>
<stop offset="0.533333" stop-color="#FFB81C"/>
<stop offset="0.6" stop-color="#FFB615"/>
<stop offset="0.666667" stop-color="#FFB40F"/>
<stop offset="0.733333" stop-color="#FFB209"/>
<stop offset="0.8" stop-color="#FFB105"/>
<stop offset="0.866667" stop-color="#FFB002"/>
<stop offset="0.933333" stop-color="#FFAF01"/>
<stop offset="1" stop-color="#FFAF00"/>
</linearGradient>
</defs>
</svg>
