<svg width="512" height="512" viewBox="0 0 512 512" fill="none" xmlns="http://www.w3.org/2000/svg">
<g clip-path="url(#clip0_693_530)">
<path d="M254.332 0.559279C255.319 -0.186428 256.681 -0.186426 257.668 0.559281L312.309 41.8353C312.883 42.269 313.603 42.462 314.318 42.3735L382.276 33.9477C383.503 33.7955 384.683 34.4766 385.165 35.616L411.847 98.6823C412.128 99.345 412.655 99.8724 413.318 100.153L476.384 126.835C477.523 127.317 478.205 128.497 478.052 129.724L469.627 197.682C469.538 198.397 469.731 199.117 470.165 199.691L511.441 254.332C512.186 255.319 512.186 256.681 511.441 257.668L470.165 312.309C469.731 312.883 469.538 313.603 469.627 314.318L478.052 382.276C478.205 383.503 477.523 384.683 476.384 385.165L413.318 411.847C412.655 412.128 412.128 412.655 411.847 413.318L385.165 476.384C384.683 477.523 383.503 478.205 382.276 478.052L314.318 469.627C313.603 469.538 312.883 469.731 312.309 470.165L257.668 511.441C256.681 512.186 255.319 512.186 254.332 511.441L199.691 470.165C199.117 469.731 198.397 469.538 197.682 469.627L129.724 478.052C128.497 478.205 127.317 477.523 126.835 476.384L100.153 413.318C99.8724 412.655 99.345 412.128 98.6823 411.847L35.616 385.165C34.4766 384.683 33.7955 383.503 33.9477 382.276L42.3735 314.318C42.462 313.603 42.269 312.883 41.8353 312.309L0.559279 257.668C-0.186428 256.681 -0.186426 255.319 0.559281 254.332L41.8353 199.691C42.269 199.117 42.462 198.397 42.3735 197.682L33.9477 129.724C33.7955 128.497 34.4766 127.317 35.616 126.835L98.6823 100.153C99.345 99.8724 99.8724 99.345 100.153 98.6823L126.835 35.616C127.317 34.4766 128.497 33.7955 129.724 33.9477L197.682 42.3735C198.397 42.462 199.117 42.269 199.691 41.8353L254.332 0.559279Z" fill="black"/>
</g>
<defs>
<clipPath id="clip0_693_530">
<rect width="512" height="512" fill="white"/>
</clipPath>
</defs>
</svg>
