<svg width="138" height="138" viewBox="0 0 138 138" fill="none" xmlns="http://www.w3.org/2000/svg">
<g clip-path="url(#clip0_693_541)">
<path fill-rule="evenodd" clip-rule="evenodd" d="M69.5 139C107.884 139 139 107.884 139 69.5C139 31.1162 107.884 0 69.5 0C31.1162 0 0 31.1162 0 69.5C0 107.884 31.1162 139 69.5 139ZM69.391 9.13108C69.1596 8.95631 68.8404 8.95631 68.609 9.13108L55.8026 18.8051C55.6681 18.9068 55.4992 18.952 55.3318 18.9313L39.4041 16.9565C39.1164 16.9208 38.8399 17.0805 38.7269 17.3475L32.4733 32.1287C32.4076 32.284 32.284 32.4076 32.1287 32.4733L17.3475 38.7269C17.0805 38.8399 16.9208 39.1164 16.9565 39.4041L18.9313 55.3318C18.952 55.4992 18.9068 55.6681 18.8051 55.8026L9.13108 68.609C8.95631 68.8404 8.95631 69.1596 9.13108 69.391L18.8051 82.1974C18.9068 82.3319 18.952 82.5008 18.9313 82.6682L16.9565 98.5959C16.9208 98.8836 17.0805 99.1601 17.3475 99.2731L32.1287 105.527C32.284 105.592 32.4076 105.716 32.4733 105.871L38.7269 120.653C38.8399 120.92 39.1164 121.079 39.4041 121.044L55.3318 119.069C55.4992 119.048 55.6681 119.093 55.8026 119.195L68.609 128.869C68.8404 129.044 69.1596 129.044 69.391 128.869L82.1974 119.195C82.3319 119.093 82.5008 119.048 82.6682 119.069L98.5959 121.044C98.8836 121.079 99.1601 120.92 99.2731 120.653L105.527 105.871C105.592 105.716 105.716 105.592 105.871 105.527L120.653 99.2731C120.92 99.1601 121.079 98.8836 121.044 98.5959L119.069 82.6682C119.048 82.5008 119.093 82.3319 119.195 82.1974L128.869 69.391C129.044 69.1596 129.044 68.8404 128.869 68.609L119.195 55.8026C119.093 55.6681 119.048 55.4992 119.069 55.3318L121.044 39.4041C121.079 39.1164 120.92 38.8399 120.653 38.7269L105.871 32.4733C105.716 32.4076 105.592 32.284 105.527 32.1287L99.2731 17.3475C99.1601 17.0805 98.8836 16.9208 98.5959 16.9565L82.6682 18.9313C82.5008 18.952 82.3319 18.9068 82.1974 18.8051L69.391 9.13108Z" fill="#F9F7F4"/>
</g>
<defs>
<clipPath id="clip0_693_541">
<rect width="138" height="138" fill="white"/>
</clipPath>
</defs>
</svg>
